<?xml version="1.0" standalone="no"?>
<!DOCTYPE svg PUBLIC "-//W3C//DTD SVG 20010904//EN"
 "http://www.w3.org/TR/2001/REC-SVG-20010904/DTD/svg10.dtd">
<svg version="1.0" xmlns="http://www.w3.org/2000/svg"
 width="460.000000pt" height="460.000000pt" viewBox="0 0 460.000000 460.000000"
 preserveAspectRatio="xMidYMid meet">
<metadata>
Created by potrace 1.16, written by Peter Selinger 2001-2019
</metadata>
<g transform="translate(0.000000,460.000000) scale(0.100000,-0.100000)"
fill="#000000" stroke="none">
<path d="M1989 3767 c-232 -102 -411 -241 -565 -438 -46 -60 -84 -111 -84
-115 0 -3 -11 -20 -24 -37 -13 -18 -43 -70 -66 -116 -34 -65 -50 -86 -74 -96
-89 -38 -313 -186 -421 -278 -309 -266 -518 -589 -610 -942 l-24 -90 62 -60
c90 -87 147 -129 283 -207 129 -75 351 -160 509 -196 147 -34 492 -69 568 -58
23 3 85 9 137 12 52 3 98 8 103 11 5 3 54 -40 110 -94 56 -54 149 -134 205
-177 107 -81 124 -85 128 -33 1 12 16 76 33 142 17 66 33 151 36 190 4 38 12
75 18 81 7 6 32 19 57 29 25 10 59 24 77 31 17 8 36 14 43 14 16 0 204 87 252
117 21 13 42 23 48 23 5 0 34 16 64 35 30 19 60 35 65 35 6 0 25 13 43 29 28
24 66 51 137 96 19 12 92 77 145 128 21 20 41 37 45 37 3 0 17 16 31 35 35 48
80 71 109 56 78 -42 269 -90 441 -111 87 -11 236 -4 246 11 14 23 -92 161
-257 334 -49 51 -89 97 -89 103 0 5 8 27 17 48 9 22 17 44 19 49 1 6 13 35 27
65 13 30 37 91 52 135 15 44 30 89 34 100 51 130 108 396 131 611 16 142 10
398 -9 416 -11 11 -15 10 -25 -5 -28 -45 -212 -308 -254 -362 -26 -33 -50 -64
-54 -70 -4 -5 -23 -28 -40 -51 -18 -22 -49 -60 -68 -84 -89 -112 -197 -224
-303 -314 l-58 -49 -77 36 c-322 149 -658 242 -972 268 -74 6 -139 15 -145 21
-25 23 -11 385 20 523 7 33 17 90 20 128 9 80 10 80 -96 34z m71 -14 c0 -5 -4
-24 -10 -43 -33 -121 -59 -464 -46 -591 l7 -66 96 -7 c284 -21 656 -109 880
-207 24 -11 46 -19 49 -19 3 0 50 -21 105 -46 l98 -47 48 36 c49 36 235 224
309 313 115 136 282 359 366 487 36 54 54 74 59 65 15 -22 9 -227 -10 -393
-22 -185 -72 -404 -135 -590 -44 -132 -129 -339 -148 -363 -10 -11 41 -71 169
-196 32 -31 183 -220 183 -228 0 -15 -253 -8 -330 8 -107 22 -246 63 -309 90
-29 13 -57 24 -62 24 -4 0 -54 -46 -111 -103 -57 -56 -114 -111 -128 -122
-206 -162 -354 -249 -615 -362 -67 -30 -211 -83 -222 -83 -2 0 -3 21 -3 48 -1
156 -49 303 -119 366 -29 27 -27 2 4 -38 14 -18 37 -62 52 -97 22 -54 27 -84
31 -189 2 -70 -1 -164 -7 -213 -15 -110 -58 -308 -70 -320 -8 -8 -132 78 -192
133 -79 73 -105 99 -152 153 -111 128 -165 258 -153 365 3 29 2 52 -3 52 -15
0 -21 -28 -21 -93 1 -69 37 -174 83 -242 l27 -40 -23 -9 c-35 -14 -499 -12
-597 2 -173 26 -500 119 -500 143 0 5 6 9 14 9 19 0 178 83 235 123 150 104
296 277 390 463 51 101 45 120 -19 62 -92 -82 -266 -176 -434 -234 -177 -62
-507 -120 -636 -112 l-55 3 2 35 c4 81 116 362 200 505 127 215 319 417 575
606 52 39 76 53 205 124 91 50 91 51 132 129 161 310 406 551 696 683 71 32
95 39 95 26z m-1031 -2090 c1 -29 -2 -53 -5 -53 -14 0 -215 105 -207 108 4 1
51 20 103 41 l95 37 7 -40 c3 -23 7 -65 7 -93z m-236 -25 c38 -176 37 -169 13
-162 -40 13 -301 153 -304 163 -2 6 7 11 20 12 13 0 73 13 133 29 61 15 113
28 116 29 4 1 14 -32 22 -71z m227 -56 c0 -8 -98 -88 -142 -116 l-26 -17 -21
93 c-11 51 -23 108 -26 126 l-7 33 111 -56 c61 -30 111 -59 111 -63z m-550 48
c0 -9 35 -71 143 -249 l20 -33 -24 7 c-46 14 -149 65 -207 103 -89 58 -200
148 -191 157 4 3 176 21 227 24 17 0 32 -4 32 -9z m350 -192 c0 -5 -37 -26
-82 -48 -94 -45 -89 -47 -138 45 -18 33 -45 78 -59 100 -53 80 -48 80 119 -6
88 -45 160 -86 160 -91z"/>
<path d="M770 2234 c-68 -42 -91 -140 -47 -205 47 -71 131 -86 206 -36 86 57
75 193 -19 242 -38 19 -108 19 -140 -1z m130 -17 c33 -17 70 -74 70 -109 0
-67 -56 -121 -125 -121 -51 0 -81 16 -105 56 -36 59 -18 141 38 171 33 19 89
20 122 3z"/>
</g>
</svg>
